<svg width="220" height="144" viewBox="0 0 220 144" fill="none" xmlns="http://www.w3.org/2000/svg">
<path d="M216.043 33.944L212.607 50.5856L210.395 48.4277L206.633 51.1133L203.757 47.5409L197.308 52.23L191.797 43.0134L185.65 46.6145L183.212 43.2539L175.407 47.6522L173.059 42.622L178.53 16.1211L207.864 22.1781L216.043 33.944Z" fill="#EBEBEB"/>
<path d="M207.864 22.1777L216.043 33.9436L205.868 31.8432L207.864 22.1777Z" fill="#DBDBDB"/>
<path d="M211.875 53.9111L206.837 78.326L167.325 70.1686L172.326 45.9512L174.674 50.9778L182.483 46.5795L184.918 49.9401L191.068 46.3425L196.576 55.5591L203.028 50.87L205.9 54.4389L209.667 51.7569L211.875 53.9111Z" fill="#EBEBEB"/>
<path d="M155.322 51.0486L115.056 53.5404L111.856 1.85266L141.757 0L152.733 9.20943L155.322 51.0486Z" fill="#EBEBEB"/>
<path d="M141.757 0L152.733 9.20943L142.364 9.85212L141.757 0Z" fill="#DBDBDB"/>
<path d="M130.609 34.7812L130.451 33.6144C130.045 31.198 130.706 28.4944 132.806 25.6687C134.702 23.1555 135.729 21.3602 135.614 19.3209C135.485 17.023 133.959 15.5725 131.119 15.6874C129.496 15.7717 127.937 16.3477 126.649 17.339L125.41 14.5636C126.846 13.3967 129.36 12.535 131.747 12.4093C136.928 12.1221 139.449 15.1883 139.646 18.61C139.819 21.6726 138.232 23.9741 136.214 26.6633C134.361 29.1156 133.754 31.137 134.016 33.4241L134.128 34.5945L130.609 34.7812ZM129.97 41.1399C129.877 39.4739 130.936 38.2388 132.512 38.1527C134.088 38.0665 135.237 39.1723 135.33 40.8419C135.417 42.4181 134.451 43.6891 132.785 43.7824C131.194 43.8722 130.045 42.7161 129.956 41.1399H129.97Z" fill="#DBDBDB"/>
<path d="M29.8907 25.987L25.8407 24.1523L25.277 25.391C25.1937 25.5681 25.0639 25.7191 24.9013 25.8279C24.7387 25.9367 24.5496 25.9991 24.3542 26.0086C24.1317 26.0159 23.9098 26.0375 23.69 26.0732C23.4971 26.1019 23.3 26.0776 23.1197 26.003C22.9395 25.9284 22.783 25.8062 22.6667 25.6495L21.8733 24.5401L18.2577 27.1324L19.0512 28.2418C19.1615 28.402 19.2265 28.589 19.2391 28.7831C19.2518 28.9771 19.2116 29.171 19.123 29.3441C19.0206 29.5415 18.9283 29.7441 18.8465 29.9509C18.7754 30.1332 18.6559 30.2928 18.5009 30.4123C18.346 30.5319 18.1613 30.607 17.9669 30.6295L16.6133 30.7623L17.0477 35.1893L18.4085 35.0529C18.6036 35.0373 18.7994 35.0752 18.9746 35.1625C19.1498 35.2498 19.2979 35.3832 19.403 35.5483C19.4605 35.6417 19.5215 35.7315 19.5862 35.8212C19.6508 35.911 19.7154 35.9971 19.7836 36.0833C19.9075 36.2341 19.9872 36.4162 20.0138 36.6095C20.0404 36.8029 20.013 36.9998 19.9344 37.1784L19.3671 38.4279L23.4207 40.2662L23.9844 39.0203C24.0684 38.8434 24.1991 38.6928 24.3623 38.5846C24.5255 38.4764 24.7151 38.4148 24.9107 38.4063C25.1308 38.3972 25.3502 38.3757 25.5678 38.3417C25.7607 38.313 25.9578 38.3373 26.1381 38.4119C26.3183 38.4866 26.4748 38.6087 26.5911 38.7654L27.3846 39.8748L31.0037 37.2825L30.2102 36.1731C30.0965 36.0144 30.0294 35.827 30.0167 35.6322C30.004 35.4374 30.0462 35.2429 30.1384 35.0708C30.2384 34.8745 30.3283 34.6732 30.4077 34.4676C30.4767 34.2839 30.5956 34.1231 30.751 34.0032C30.9064 33.8834 31.0921 33.8092 31.2873 33.789L32.6481 33.6526L32.2101 29.2256L30.8493 29.3585C30.6554 29.3755 30.4605 29.3386 30.2863 29.2518C30.112 29.1649 29.9652 29.0316 29.8619 28.8666C29.8009 28.7732 29.7399 28.6835 29.6752 28.5937C29.6106 28.5039 29.546 28.4142 29.4778 28.3316C29.3547 28.179 29.2756 27.9957 29.249 27.8014C29.2225 27.6072 29.2494 27.4094 29.327 27.2293L29.8907 25.987ZM27.5928 30.0837C28.0127 30.6696 28.2493 31.3669 28.2729 32.0873C28.2965 32.8078 28.1058 33.519 27.7252 34.1311C27.3445 34.7432 26.7908 35.2286 26.1342 35.5261C25.4776 35.8235 24.7476 35.9195 24.0364 35.802C23.3252 35.6844 22.6649 35.3587 22.1389 34.8658C21.6129 34.373 21.2448 33.7352 21.0813 33.0332C20.9178 32.3311 20.9661 31.5964 21.2202 30.9218C21.4743 30.2473 21.9227 29.6632 22.5088 29.2436C23.2944 28.6809 24.2713 28.4534 25.2247 28.6109C26.1781 28.7685 27.0299 29.2982 27.5928 30.0837Z" fill="#EBEBEB"/>
<path d="M212.966 84.7266L210.266 86.2848L210.743 87.1106C210.815 87.2291 210.85 87.3657 210.846 87.5039C210.841 87.6421 210.797 87.7761 210.718 87.8897C210.636 88.019 210.557 88.1518 210.485 88.2919C210.426 88.4157 210.333 88.5201 210.216 88.5926C210.1 88.6652 209.965 88.7028 209.828 88.7012H208.88V91.8212H209.835C209.972 91.8196 210.107 91.8572 210.223 91.9298C210.34 92.0023 210.433 92.1067 210.492 92.2305C210.564 92.3706 210.643 92.5034 210.725 92.6327C210.804 92.7463 210.848 92.8803 210.853 93.0185C210.857 93.1567 210.822 93.2933 210.751 93.4118L210.273 94.2376L212.973 95.7958L213.454 94.9665C213.524 94.8488 213.625 94.7529 213.746 94.6895C213.867 94.6261 214.003 94.5977 214.14 94.6074H214.599C214.736 94.5981 214.872 94.6267 214.993 94.6901C215.114 94.7534 215.215 94.8491 215.285 94.9665L215.766 95.7994L218.463 94.2412L217.985 93.4118C217.917 93.2927 217.884 93.157 217.889 93.0199C217.894 92.8829 217.937 92.75 218.014 92.6363C218.096 92.507 218.175 92.3706 218.247 92.2341C218.306 92.1103 218.4 92.0059 218.516 91.9334C218.632 91.8608 218.767 91.8232 218.904 91.8248H219.859V88.7048H218.897C218.76 88.7064 218.625 88.6688 218.509 88.5962C218.392 88.5237 218.299 88.4193 218.24 88.2954C218.168 88.159 218.089 88.0226 218.007 87.8933C217.93 87.7796 217.887 87.6467 217.882 87.5096C217.877 87.3726 217.91 87.2369 217.978 87.1178L218.456 86.2884L215.759 84.7302L215.278 85.5488C215.208 85.6664 215.107 85.7623 214.986 85.8257C214.865 85.8891 214.729 85.9176 214.592 85.9078H214.362H214.133C213.996 85.917 213.859 85.8884 213.738 85.825C213.616 85.7617 213.514 85.6661 213.443 85.5488L212.966 84.7266ZM214.362 87.7066C214.868 87.7059 215.363 87.8553 215.784 88.136C216.205 88.4166 216.533 88.8158 216.727 89.2831C216.921 89.7503 216.972 90.2646 216.873 90.7608C216.775 91.2571 216.531 91.7129 216.174 92.0706C215.816 92.4284 215.36 92.6719 214.864 92.7704C214.368 92.869 213.853 92.818 213.386 92.6241C212.919 92.4302 212.52 92.1019 212.239 91.681C211.958 91.2601 211.809 90.7653 211.81 90.2594C211.809 89.9239 211.875 89.5915 212.003 89.2814C212.131 88.9713 212.319 88.6894 212.556 88.452C212.793 88.2146 213.075 88.0262 213.385 87.8977C213.695 87.7692 214.027 87.703 214.362 87.703V87.7066Z" fill="#EBEBEB"/>
<path d="M38.0838 12.72L35.61 14.6157L36.1809 15.3733C36.266 15.4813 36.3184 15.6114 36.3318 15.7482C36.3451 15.8851 36.3189 16.0229 36.2563 16.1453C36.1876 16.285 36.1276 16.4289 36.0768 16.5761C36.0325 16.7058 35.9529 16.8205 35.847 16.9074C35.7411 16.9943 35.613 17.0499 35.4772 17.068L34.5293 17.1901L34.9314 20.2814L35.8793 20.1594C36.0173 20.1401 36.1579 20.1602 36.2849 20.2174C36.412 20.2746 36.5203 20.3665 36.5974 20.4825C36.6838 20.6074 36.7773 20.7273 36.8774 20.8415C36.9699 20.9433 37.0313 21.0694 37.0542 21.205C37.0771 21.3405 37.0606 21.4798 37.0067 21.6063L36.6476 22.4895L39.52 23.6851L39.879 22.8019C39.9325 22.6752 40.0203 22.566 40.1326 22.4867C40.245 22.4073 40.3773 22.3611 40.5145 22.3531L40.7443 22.328L40.9705 22.2921C41.1034 22.267 41.2406 22.2789 41.3672 22.3264C41.4938 22.3738 41.605 22.4551 41.6886 22.5613L42.2738 23.3261L44.7476 21.4304L44.1696 20.6728C44.0861 20.5633 44.0348 20.4328 44.0215 20.2958C44.0082 20.1587 44.0333 20.0207 44.0942 19.8973C44.1622 19.7584 44.2222 19.6158 44.2737 19.47C44.318 19.3403 44.3975 19.2256 44.5035 19.1387C44.6094 19.0518 44.7375 18.9962 44.8733 18.9781L45.8212 18.856L45.4191 15.7647L44.4712 15.8868C44.3336 15.9064 44.1932 15.8868 44.0662 15.8303C43.9392 15.7737 43.8307 15.6826 43.7531 15.5672C43.6633 15.4379 43.57 15.3159 43.4695 15.2082C43.3858 15.1043 43.3317 14.9798 43.3127 14.8477C43.2938 14.7157 43.3107 14.581 43.3617 14.4578L43.7208 13.5745L40.8484 12.3789L40.4894 13.2621C40.4353 13.3884 40.3472 13.4971 40.2351 13.5764C40.1229 13.6556 39.9909 13.7022 39.8539 13.711L39.6241 13.7325L39.4123 13.7397C39.2794 13.7647 39.1422 13.7529 39.0156 13.7054C38.889 13.6579 38.7778 13.5766 38.6942 13.4704L38.0838 12.72ZM39.8539 15.4954C40.354 15.4311 40.862 15.5164 41.3137 15.7404C41.7655 15.9645 42.1407 16.3174 42.3922 16.7545C42.6436 17.1915 42.76 17.6933 42.7266 18.1965C42.6932 18.6996 42.5115 19.1816 42.2045 19.5816C41.8975 19.9816 41.4788 20.2818 41.0015 20.4441C40.5241 20.6065 40.0093 20.6239 39.522 20.4941C39.0348 20.3642 38.5969 20.093 38.2636 19.7145C37.9303 19.3361 37.7166 18.8675 37.6494 18.3677C37.6045 18.0342 37.626 17.6952 37.7127 17.37C37.7993 17.0448 37.9494 16.74 38.1543 16.4731C38.3592 16.2061 38.6148 15.9823 38.9065 15.8146C39.1982 15.6468 39.5201 15.5383 39.8539 15.4954Z" fill="#EBEBEB"/>
<path d="M19.6004 93.7277C19.7353 90.2569 19.6873 86.7813 19.4568 83.3155C18.943 76.1588 17.8516 69.0554 16.1931 62.0746C15.2811 58.1467 14.1609 54.2834 12.9904 50.4237C12.9545 50.3052 12.7678 50.3375 12.8001 50.4596C16.4157 64.0673 19.3814 78.1058 19.1767 92.2521C19.1193 96.2015 18.6597 100.097 18.2863 104.032C18.2863 104.136 18.4479 104.179 18.473 104.072C19.2162 100.693 19.4604 97.1674 19.6004 93.7277Z" fill="#EBEBEB"/>
<path d="M12.8001 50.4492C12.8001 50.4492 7.32828 64.3442 8.55261 67.5971C9.77695 70.85 12.3046 71.5465 12.3046 71.5465C12.3046 71.5465 8.95474 76.329 11.2957 80.8134C13.6367 85.2979 18.8356 85.086 19.1946 90.1701C19.1839 90.1952 19.4711 68.9363 12.8001 50.4492Z" fill="#EBEBEB"/>
<path d="M18.5877 81.4165C18.5966 81.3933 18.5966 81.3678 18.5877 81.3447C17.8696 71.8584 16.0896 62.4826 13.2811 53.3932C13.2811 53.3681 13.2272 53.3753 13.2344 53.3932C14.3187 57.4624 15.2762 61.5483 16.1068 65.6509C15.3711 64.954 14.4724 64.4528 13.4929 64.1932C13.4929 64.1932 13.4642 64.2148 13.4929 64.2219C14.5219 64.599 15.4471 65.2142 16.1929 66.0171C16.3509 66.825 16.5089 67.6292 16.6561 68.4371C15.4318 67.0691 13.7371 66.3905 12.0388 65.7443C12.035 65.7459 12.0317 65.7487 12.0294 65.7522C12.0271 65.7557 12.0259 65.7598 12.0259 65.764C12.0259 65.7682 12.0271 65.7723 12.0294 65.7758C12.0317 65.7793 12.035 65.7821 12.0388 65.7838C13.8089 66.5019 15.5682 67.4282 16.7674 68.9541C17.1839 71.2592 17.5501 73.5726 17.8661 75.8944C16.982 74.9682 15.8483 74.3185 14.6024 74.0238C14.5629 74.0238 14.5413 74.0705 14.5808 74.0812C15.8607 74.4582 17.0034 75.1991 17.8697 76.2139H17.8912C17.9989 77.0278 18.1018 77.8452 18.2 78.6662C17.5161 78.0875 16.744 77.622 15.9129 77.2875C15.8913 77.2875 15.877 77.3126 15.9129 77.3198C16.761 77.6872 17.5377 78.2013 18.2072 78.8385C18.2072 78.8385 18.2251 78.8385 18.2359 78.8385C18.3256 79.6177 18.4154 80.3968 18.4944 81.1759C17.2615 79.6855 15.6614 78.542 13.852 77.8584C13.8444 77.8584 13.8371 77.8614 13.8317 77.8668C13.8263 77.8722 13.8233 77.8795 13.8233 77.8871C13.8233 77.8947 13.8263 77.902 13.8317 77.9074C13.8371 77.9128 13.8444 77.9158 13.852 77.9158C15.6387 78.7034 17.2082 79.9119 18.4262 81.438C18.4396 81.4548 18.4577 81.4671 18.4781 81.4735C18.4986 81.4799 18.5205 81.48 18.5411 81.4739C18.6596 82.6695 18.7673 83.8651 18.8534 85.0643C18.8534 85.0823 18.8822 85.0823 18.8822 85.0643C18.7888 83.8603 18.6907 82.6444 18.5877 81.4165Z" fill="white"/>
<path d="M14.1893 62.8257C13.1983 62.209 12.0663 61.8555 10.9004 61.7988C10.8947 61.7988 10.8893 61.8011 10.8852 61.8051C10.8812 61.8092 10.8789 61.8147 10.8789 61.8204C10.8789 61.8261 10.8812 61.8316 10.8852 61.8356C10.8893 61.8396 10.8947 61.8419 10.9004 61.8419C12.0276 62.0557 13.1214 62.4179 14.1534 62.919C14.1965 62.9298 14.2288 62.8544 14.1893 62.8257Z" fill="white"/>
<path d="M14.8535 77.5352C14.0918 77.098 13.2532 76.8116 12.3833 76.6914C12.3545 76.6914 12.3509 76.7309 12.3833 76.7381C13.2327 76.9085 14.0544 77.1961 14.8247 77.5926C14.8571 77.6106 14.8858 77.5531 14.8535 77.5352Z" fill="white"/>
<path d="M33.9906 67.8369C31.6758 69.437 29.5499 71.2943 27.6535 73.3733C25.6978 75.5746 24.1893 78.1355 23.2122 80.9132C21.1325 86.7003 20.0143 92.7888 19.9018 98.9371C19.832 102.342 20.1586 105.743 20.8748 109.073C20.8806 109.097 20.8955 109.118 20.9164 109.132C20.9373 109.145 20.9626 109.15 20.987 109.146C21.0115 109.141 21.0332 109.127 21.0478 109.107C21.0623 109.087 21.0685 109.062 21.0651 109.037C20.1739 103.162 20.2078 97.1831 21.1656 91.3183C22.1063 85.5736 23.582 79.3191 27.237 74.6479C29.2261 72.1023 31.7071 70.1024 34.1594 68.0344C34.2886 67.9195 34.1235 67.7435 33.9906 67.8369Z" fill="#EBEBEB"/>
<path d="M20.7061 94.794C22.0237 92.6628 23.5721 90.6833 25.3233 88.8913C28.0628 86.1518 30.3679 84.2058 30.7269 82.3962C31.086 80.5867 27.9838 79.251 27.9838 79.251C27.9838 79.251 31.7717 79.9332 32.8094 78.3426C33.847 76.7521 34.3461 67.5391 34.3461 67.5391C34.3461 67.5391 27.4525 72.4615 24.239 79.3623C21.0256 86.2631 20.7061 94.794 20.7061 94.794Z" fill="#EBEBEB"/>
<path d="M31.872 76.1811C31.4181 76.1136 30.958 76.0979 30.5005 76.1344C30.4466 76.1344 30.4502 76.2278 30.5005 76.2314C30.9529 76.2314 31.4089 76.2098 31.8613 76.2314C31.8664 76.23 31.8711 76.2273 31.8748 76.2234C31.8785 76.2196 31.8811 76.2148 31.8822 76.2096C31.8833 76.2044 31.8829 76.1989 31.8812 76.1939C31.8794 76.1889 31.8762 76.1844 31.872 76.1811Z" fill="white"/>
<path d="M26.9209 85.1172C26.193 85.132 25.4734 85.2754 24.7954 85.5409C24.7954 85.5409 24.7954 85.5768 24.7954 85.5732C25.5135 85.4044 26.2064 85.3362 26.9174 85.2141C26.9266 85.2101 26.9346 85.2035 26.9403 85.1951C26.946 85.1867 26.9492 85.1769 26.9496 85.1668C26.95 85.1567 26.9475 85.1466 26.9424 85.1379C26.9373 85.1291 26.9299 85.1219 26.9209 85.1172Z" fill="white"/>
<path d="M25.4346 82.0294C25.1323 82.027 24.8306 82.0535 24.5334 82.1084C24.5279 82.1105 24.5231 82.1141 24.5198 82.119C24.5164 82.1238 24.5146 82.1295 24.5146 82.1354C24.5146 82.1412 24.5164 82.1469 24.5198 82.1518C24.5231 82.1566 24.5279 82.1603 24.5334 82.1623C24.8343 82.1797 25.1363 82.1665 25.4346 82.1228C25.447 82.1228 25.4588 82.1179 25.4676 82.1091C25.4763 82.1004 25.4812 82.0885 25.4812 82.0761C25.4812 82.0637 25.4763 82.0519 25.4676 82.0431C25.4588 82.0344 25.447 82.0294 25.4346 82.0294Z" fill="white"/>
<path d="M0.495481 77.61C2.73921 78.3707 4.88928 79.3837 6.90439 80.6296C8.99523 81.9582 10.8084 83.6799 12.2433 85.6993C15.2625 89.9019 17.5741 94.57 19.0867 99.5188C19.9303 102.259 20.4508 105.088 20.6378 107.949C20.6338 107.968 20.6237 107.984 20.609 107.996C20.5942 108.008 20.5759 108.015 20.557 108.015C20.538 108.015 20.5197 108.008 20.505 107.996C20.4903 107.984 20.4801 107.968 20.4762 107.949C19.8424 102.989 18.4346 98.1583 16.3041 93.6341C14.2109 89.1999 11.5719 84.4821 7.5363 81.5451C5.33896 79.9474 2.86875 78.899 0.405721 77.7931C0.276465 77.75 0.366226 77.5669 0.495481 77.61Z" fill="#EBEBEB"/>
<path d="M17.4783 96.357C15.9184 94.9378 14.2075 93.694 12.3763 92.6481C9.5255 91.0647 7.20968 90.0235 6.50236 88.6412C5.79505 87.2589 7.99598 85.4637 7.99598 85.4637C7.99598 85.4637 5.08774 86.8998 3.88136 85.8407C2.67497 84.7815 0.140137 77.457 0.140137 77.457C0.140137 77.457 6.85782 79.8447 11.0478 84.6881C15.2379 89.5316 17.4783 96.357 17.4783 96.357Z" fill="#EBEBEB"/>
<path d="M11.9024 89.6121C11.2419 89.566 10.5788 89.6477 9.94922 89.8526C9.94922 89.8526 9.94922 89.885 9.94922 89.8814C10.5915 89.7712 11.2404 89.7041 11.8916 89.6803C11.9383 89.6803 11.9491 89.6157 11.9024 89.6121Z" fill="white"/>
<path d="M6.04268 81.9309C5.7414 81.9063 5.43817 81.9232 5.14149 81.9811C5.10917 81.9811 5.11995 82.0386 5.14149 82.035C5.43949 82.0027 5.73032 82.0134 6.02473 82.0063C6.03388 82.0066 6.04286 82.0038 6.05016 81.9983C6.05745 81.9927 6.0626 81.9849 6.06472 81.9759C6.06684 81.967 6.0658 81.9577 6.06178 81.9495C6.05776 81.9412 6.05101 81.9347 6.04268 81.9309Z" fill="white"/>
<path d="M26.1418 117.209H10.9795L13.1409 101.371L13.6939 97.3105H23.4275L23.9804 101.371L26.1418 117.209Z" fill="#DBDBDB"/>
<path d="M23.9806 101.371H13.1411L13.694 97.3105H23.4277L23.9806 101.371Z" fill="#C7C7C7"/>
<path d="M24.817 95.9043H12.3008V99.3439H24.817V95.9043Z" fill="#DBDBDB"/>
<path d="M1.33936 117.209L28.6302 117.123L55.921 117.09L110.503 117.029L165.084 117.09L192.375 117.123L219.666 117.209L192.375 117.299L165.084 117.327L110.503 117.388L55.921 117.327L28.6302 117.295L1.33936 117.209Z" fill="#263238"/>
<path d="M111.22 143.968C168.079 143.968 214.172 138.918 214.172 132.687C214.172 126.457 168.079 121.406 111.22 121.406C54.3616 121.406 8.26855 126.457 8.26855 132.687C8.26855 138.918 54.3616 143.968 111.22 143.968Z" fill="#EBEBEB"/>
<path d="M87.2544 130.821C86.4178 131.105 62.4302 131.18 61.5111 130.613C61.152 130.398 60.9474 126.904 60.793 122.675C60.7607 121.763 60.7355 120.818 60.714 119.863L58.8003 107.067L74.8387 106.963L76.3503 119.763L76.2892 122.578C76.2892 122.578 85.4879 126.653 86.4286 127.392C87.3693 128.132 88.091 130.538 87.2544 130.821Z" fill="#EB9481"/>
<path d="M87.2546 130.822C86.418 131.106 62.4304 131.181 61.5112 130.614C61.0876 130.348 60.8578 125.246 60.7285 119.864L76.3325 119.764L76.2715 122.579C76.2715 122.579 85.4701 126.654 86.4108 127.393C87.3515 128.133 88.0911 130.539 87.2546 130.822Z" fill="white"/>
<path d="M87.2544 130.822C86.4178 131.105 62.4302 131.181 61.5111 130.613C61.152 130.398 60.9474 126.905 60.793 122.675L76.2569 122.578C76.2569 122.578 85.4556 126.653 86.3963 127.393C87.337 128.133 88.091 130.538 87.2544 130.822Z" fill="#A6A6A6"/>
<path d="M86.9059 129.863C82.8846 129.776 66.6559 129.816 62.6741 130.038C62.6418 130.038 62.6418 130.06 62.6741 130.064C66.6595 130.232 82.8882 130.064 86.9059 129.927C86.9921 129.924 86.9921 129.863 86.9059 129.863Z" fill="#263238"/>
<path d="M84.8632 126.536C84.4161 126.526 83.9717 126.609 83.5582 126.779C83.1448 126.95 82.7712 127.205 82.4612 127.527C81.8963 128.102 81.577 128.875 81.5708 129.681C81.5708 129.706 81.6139 129.706 81.6175 129.681C81.751 128.887 82.1378 128.157 82.7202 127.6C83.3025 127.044 84.0492 126.691 84.8488 126.593C84.8565 126.595 84.8645 126.594 84.8713 126.59C84.878 126.586 84.8828 126.579 84.8848 126.572C84.8867 126.564 84.8855 126.556 84.8814 126.549C84.8774 126.543 84.8708 126.538 84.8632 126.536Z" fill="#263238"/>
<path d="M77.8299 122.973C76.2214 122.955 74.3579 123.53 73.3598 124.851C73.3239 124.901 73.3957 124.955 73.4424 124.93C74.8477 124.188 76.3282 123.598 77.8586 123.171C77.8823 123.164 77.9028 123.149 77.9162 123.129C77.9296 123.108 77.9351 123.083 77.9316 123.059C77.928 123.035 77.9157 123.013 77.897 122.997C77.8783 122.981 77.8544 122.973 77.8299 122.973Z" fill="#263238"/>
<path d="M79.0791 123.451C77.467 123.451 75.6036 124.011 74.6091 125.329C74.5696 125.383 74.6414 125.437 74.6916 125.412C76.0949 124.667 77.5743 124.076 79.1043 123.649C79.1276 123.642 79.1479 123.628 79.1613 123.607C79.1748 123.587 79.1805 123.563 79.1774 123.539C79.1743 123.515 79.1627 123.493 79.1447 123.477C79.1266 123.461 79.1034 123.452 79.0791 123.451Z" fill="#263238"/>
<path d="M80.3211 123.932C78.7126 123.932 76.8492 124.488 75.851 125.809C75.8151 125.86 75.8869 125.914 75.9336 125.888C77.3389 125.147 78.8194 124.557 80.3498 124.129C80.3735 124.123 80.394 124.108 80.4074 124.087C80.4208 124.067 80.4263 124.042 80.4228 124.018C80.4192 123.993 80.4069 123.971 80.3882 123.955C80.3695 123.94 80.3456 123.931 80.3211 123.932Z" fill="#263238"/>
<path d="M81.5671 124.413C79.955 124.395 78.0915 124.969 77.097 126.29C77.0575 126.341 77.1329 126.394 77.1796 126.369C78.5846 125.627 80.0651 125.037 81.5958 124.61C81.6195 124.604 81.6399 124.589 81.6534 124.568C81.6668 124.548 81.6723 124.523 81.6688 124.499C81.6652 124.474 81.6529 124.452 81.6342 124.436C81.6155 124.42 81.5916 124.412 81.5671 124.413Z" fill="#263238"/>
<path d="M63.6867 126.215C61.8915 126.215 61.8915 129.033 63.6867 129.023C65.482 129.012 65.4963 126.204 63.6867 126.215Z" fill="#263238"/>
<path d="M79.5564 118.672C78.7414 117.997 77.7145 118.672 77.2155 119.365C76.3847 120.589 75.8895 122.011 75.7793 123.486C75.7793 123.519 75.8044 123.533 75.8296 123.533C75.8359 123.564 75.8495 123.592 75.8691 123.616C75.8888 123.64 75.9139 123.659 75.9424 123.671C75.9709 123.684 76.002 123.689 76.0329 123.687C76.0639 123.685 76.0939 123.675 76.1204 123.659C77.2621 122.865 78.5834 122.154 79.4487 121.031C79.9406 120.377 80.3427 119.3 79.5564 118.672ZM77.5961 122.097C77.0431 122.503 76.4722 122.88 75.9337 123.307C76.2209 122.503 76.4687 121.691 76.8349 120.916C77.0041 120.544 77.1984 120.184 77.4165 119.839C77.7756 119.304 79.341 117.954 79.5062 119.702C79.5995 120.661 78.2531 121.616 77.5961 122.097Z" fill="#263238"/>
<path d="M71.7726 124.096C73.1729 124.305 74.6198 123.903 75.9949 123.684C76.0248 123.676 76.0524 123.661 76.0756 123.641C76.0987 123.62 76.1168 123.595 76.1283 123.566C76.1398 123.538 76.1445 123.507 76.1419 123.476C76.1393 123.445 76.1296 123.415 76.1134 123.389C76.1186 123.385 76.1229 123.38 76.1258 123.374C76.1287 123.368 76.1302 123.362 76.1302 123.355C76.1302 123.348 76.1287 123.342 76.1258 123.336C76.1229 123.33 76.1186 123.325 76.1134 123.321C75.0085 122.336 73.6637 121.658 72.2142 121.357C71.3669 121.195 70.1677 121.429 70.06 122.481C69.9307 123.472 70.954 123.967 71.7726 124.096ZM70.796 123.185C69.7189 121.806 71.7762 121.687 72.3937 121.831C72.7944 121.931 73.1878 122.058 73.5714 122.211C74.3567 122.537 75.1248 122.903 75.8728 123.307C75.1907 123.375 74.5193 123.497 73.8407 123.59C73.0292 123.698 71.3992 123.942 70.796 123.185Z" fill="#263238"/>
<path d="M35.2183 47.9219C35.2183 47.9219 53.8418 79.6038 54.3409 81.8298C55.1056 85.2479 59.1592 119.001 59.1592 119.001L78.5475 118.642C78.5475 118.642 75.2084 88.8814 72.0452 79.076C69.7689 72.0136 53.3319 48.5897 53.3319 48.5897L35.2183 47.9219Z" fill="#37474F"/>
<path d="M76.7846 115.685C74.002 115.663 64.1391 115.552 60.4338 115.896C60.4051 115.896 60.4087 115.947 60.4338 115.95C61.7084 116.133 73.9984 115.85 76.781 115.76C76.7868 115.762 76.793 115.763 76.7992 115.762C76.8053 115.761 76.8112 115.759 76.8163 115.756C76.8215 115.752 76.8257 115.748 76.8288 115.742C76.8318 115.737 76.8336 115.731 76.8338 115.725C76.8341 115.719 76.833 115.712 76.8305 115.707C76.8279 115.701 76.8241 115.696 76.8193 115.692C76.8145 115.688 76.8089 115.686 76.8029 115.684C76.7968 115.683 76.7906 115.683 76.7846 115.685Z" fill="#263238"/>
<path d="M38.3959 50.8304C39.6166 52.7441 40.9092 54.6183 42.1514 56.5177C43.3937 58.417 44.6432 60.3163 45.8747 62.2121C48.3306 66.0419 50.7242 69.8968 53.0555 73.7768C54.1933 75.5754 55.1667 77.4728 55.9638 79.4461C56.6914 81.4198 57.2382 83.4556 57.5974 85.5283C57.978 87.6071 58.2293 89.7075 58.4627 91.8079C58.7021 94.0412 58.9522 96.2756 59.2131 98.5112C59.723 103.085 60.234 107.66 60.7462 112.234C60.8073 112.794 60.8683 113.354 60.9258 113.918C60.9258 114 60.7857 114.015 60.775 113.918C60.2041 109.376 59.7301 104.816 59.2131 100.274C58.9546 98.0074 58.6973 95.7418 58.4412 93.4775C58.2006 91.3699 57.9708 89.2587 57.6441 87.1655C57.3443 85.0994 56.8882 83.0589 56.2797 81.0618C55.6093 78.9939 54.711 77.0069 53.6013 75.1376C51.3573 71.2635 48.9804 67.4577 46.6036 63.6482C44.2267 59.8388 41.7852 55.9971 39.2791 52.2343C38.9703 51.7711 38.658 51.308 38.3348 50.852C38.3097 50.8268 38.3743 50.7945 38.3959 50.8304Z" fill="#263238"/>
<path d="M41.3221 132.689C40.4389 132.635 17.6253 123.393 16.9934 122.517C16.9653 122.466 16.9528 122.407 16.9575 122.349C16.9575 121.562 18.5409 118.819 19.8622 115.214C19.9448 114.985 20.5336 113.915 21.3486 112.475C23.6142 108.529 27.5636 101.732 27.5636 101.732L42.4747 107.657L35.3369 118.338L34.2274 120.923C34.2274 120.923 41.2252 128.158 41.814 129.181C42.4028 130.204 42.2018 132.739 41.3221 132.689Z" fill="#EB9481"/>
<path d="M41.3221 132.689C40.4389 132.635 17.6253 123.393 16.9934 122.517C16.9653 122.465 16.9528 122.407 16.9575 122.348C16.9575 121.562 18.5409 118.819 19.8622 115.214C19.9448 114.984 20.5336 113.914 21.3486 112.475L35.3513 118.338L34.2418 120.923C34.2418 120.923 41.2395 128.158 41.8284 129.181C42.4172 130.204 42.2018 132.739 41.3221 132.689Z" fill="white"/>
<path d="M41.3223 132.689C40.439 132.636 17.6255 123.394 16.9936 122.518C16.7494 122.184 17.7691 119.071 19.8659 115.215L34.2276 120.927C34.2276 120.927 41.2253 128.155 41.8177 129.185C42.4102 130.216 42.2019 132.74 41.3223 132.689Z" fill="#A6A6A6"/>
<path d="M41.358 131.67C37.6635 130.083 22.6052 124.03 18.8317 122.744C18.7994 122.744 18.7922 122.744 18.8317 122.766C22.4616 124.417 37.5665 130.349 41.3436 131.742C41.4154 131.76 41.437 131.702 41.358 131.67Z" fill="#263238"/>
<path d="M40.7115 127.816C40.3018 127.636 39.8592 127.543 39.4117 127.543C38.9643 127.543 38.5217 127.636 38.112 127.816C37.3754 128.138 36.7915 128.733 36.4819 129.475C36.4819 129.496 36.5143 129.514 36.525 129.493C36.9483 128.804 37.5833 128.272 38.3348 127.974C39.0863 127.677 39.9139 127.632 40.6935 127.845C40.6995 127.843 40.7047 127.839 40.708 127.834C40.7114 127.828 40.7126 127.822 40.7115 127.816Z" fill="#263238"/>
<path d="M35.5307 121.878C34.0479 121.257 32.1018 121.091 30.6836 121.942C30.6298 121.975 30.6836 122.05 30.7303 122.047C32.3113 121.886 33.9048 121.895 35.484 122.072C35.5083 122.074 35.5327 122.068 35.5527 122.054C35.5727 122.04 35.5869 122.019 35.5926 121.995C35.5984 121.971 35.5952 121.946 35.5838 121.925C35.5724 121.903 35.5535 121.886 35.5307 121.878Z" fill="#263238"/>
<path d="M36.5038 122.79C35.021 122.169 33.075 122.004 31.6568 122.855C31.6029 122.887 31.6568 122.962 31.7034 122.959C33.2843 122.796 34.8781 122.805 36.4572 122.984C36.4815 122.986 36.5059 122.98 36.5259 122.966C36.5459 122.952 36.5601 122.931 36.5658 122.907C36.5715 122.884 36.5684 122.859 36.557 122.837C36.5456 122.815 36.5267 122.799 36.5038 122.79Z" fill="#263238"/>
<path d="M37.4801 123.702C35.9937 123.081 34.0477 122.916 32.6331 123.767C32.5756 123.799 32.6331 123.874 32.6761 123.871C34.257 123.709 35.8508 123.717 37.4299 123.896C37.4547 123.9 37.4801 123.895 37.5012 123.881C37.5223 123.867 37.5375 123.846 37.5438 123.822C37.5501 123.798 37.5471 123.772 37.5353 123.75C37.5235 123.727 37.5038 123.71 37.4801 123.702Z" fill="#263238"/>
<path d="M38.4533 124.615C36.9668 123.993 35.0244 123.828 33.6062 124.676C33.5488 124.712 33.6062 124.787 33.6493 124.783C35.2302 124.621 36.8239 124.63 38.403 124.808C38.4278 124.813 38.4533 124.807 38.4743 124.794C38.4954 124.78 38.5106 124.759 38.5169 124.735C38.5232 124.71 38.5202 124.684 38.5084 124.662C38.4966 124.64 38.477 124.623 38.4533 124.615Z" fill="#263238"/>
<path d="M21.2012 119.577C19.5245 118.909 18.4832 121.52 20.1672 122.187C21.8511 122.855 22.8959 120.245 21.2012 119.577Z" fill="#263238"/>
<path d="M38.7445 118.539C38.2383 117.609 37.0427 117.839 36.3138 118.302C35.086 119.125 34.0956 120.255 33.4415 121.58C33.4386 121.586 33.4371 121.593 33.437 121.599C33.437 121.606 33.4384 121.612 33.4411 121.618C33.4439 121.624 33.4479 121.629 33.453 121.633C33.458 121.637 33.4639 121.64 33.4702 121.641C33.4702 121.76 33.5492 121.9 33.6892 121.871C35.05 121.559 36.54 121.397 37.7608 120.679C38.4609 120.263 39.2221 119.419 38.7445 118.539ZM35.6388 120.977C34.9746 121.146 34.3068 121.282 33.6497 121.476C34.1932 120.822 34.7696 120.195 35.3767 119.599C35.6756 119.314 35.9935 119.05 36.3282 118.809C36.8488 118.45 38.8163 117.785 38.3137 119.469C38.0372 120.399 36.4323 120.776 35.6388 120.977Z" fill="#263238"/>
<path d="M29.4918 120.646C30.7126 121.364 32.2026 121.533 33.5598 121.849C33.6998 121.881 33.7931 121.741 33.7824 121.619C33.7891 121.618 33.7955 121.616 33.8011 121.612C33.8066 121.608 33.811 121.603 33.8139 121.596C33.8168 121.59 33.818 121.584 33.8175 121.577C33.817 121.57 33.8148 121.563 33.8111 121.558C33.158 120.23 32.1675 119.097 30.9388 118.273C30.2207 117.806 29.0179 117.572 28.508 118.499C27.9982 119.425 28.7773 120.226 29.4918 120.646ZM28.9317 119.432C28.4326 117.748 30.3966 118.416 30.9172 118.779C31.2515 119.021 31.5683 119.286 31.8651 119.572C32.471 120.17 33.0462 120.798 33.5885 121.454C32.9314 121.26 32.2636 121.12 31.5994 120.951C30.7951 120.736 29.2046 120.377 28.9317 119.432Z" fill="#263238"/>
<path d="M36.4966 117.742L19.8047 111.003C19.8047 111.003 40.4999 80.5739 40.6507 78.3083C40.7871 76.3049 31.6962 58.8483 31.3407 53.7606C30.953 48.2673 33.5955 44.0198 36.5037 41.3809L53.7198 48.7017C53.7198 48.7017 51.9031 51.6064 49.0523 53.2257C49.0523 53.2257 57.8811 73.4038 57.3785 79.6081C56.8758 85.8123 36.4966 117.742 36.4966 117.742Z" fill="#37474F"/>
<path d="M37.2363 114.568C34.8236 113.53 35.5309 113.792 33.1038 112.773C31.9189 112.277 24.1277 109.035 22.9285 108.766C22.9034 108.766 22.8854 108.802 22.9105 108.816C23.9482 109.451 31.804 112.557 32.9996 113.031C35.4447 113.993 34.7518 113.692 37.2076 114.625C37.2113 114.63 37.2161 114.634 37.2217 114.636C37.2273 114.639 37.2335 114.64 37.2396 114.639C37.2456 114.639 37.2515 114.637 37.2566 114.633C37.2616 114.63 37.2657 114.625 37.2684 114.62C37.2712 114.614 37.2725 114.608 37.2722 114.602C37.2719 114.596 37.2701 114.59 37.2669 114.585C37.2637 114.58 37.2592 114.575 37.2538 114.572C37.2485 114.569 37.2425 114.568 37.2363 114.568Z" fill="#263238"/>
<path d="M51.8744 52.8565C50.082 53.2743 48.3283 53.8436 46.6323 54.5584C46.6255 54.5607 46.6192 54.5644 46.6138 54.5692C46.6084 54.574 46.6039 54.5798 46.6008 54.5863C46.5976 54.5928 46.5958 54.5999 46.5953 54.6071C46.5949 54.6143 46.5959 54.6215 46.5982 54.6284C46.6006 54.6352 46.6043 54.6415 46.6091 54.6469C46.6139 54.6523 46.6197 54.6568 46.6262 54.6599C46.6327 54.6631 46.6397 54.665 46.647 54.6654C46.6542 54.6658 46.6614 54.6648 46.6682 54.6625C48.4275 54.1491 50.2156 53.6679 51.9462 53.0612C52.079 53.0145 52.0108 52.8278 51.8744 52.8565Z" fill="#263238"/>
<path d="M49.8241 52.1596C49.6568 52.4572 49.5092 52.7654 49.3824 53.0824C49.2585 53.3229 49.1817 53.5849 49.1563 53.8543C49.1562 53.9082 49.2281 53.9189 49.2604 53.8866C49.4405 53.6712 49.5859 53.4289 49.6912 53.1685C49.8384 52.8849 49.9892 52.6048 50.1293 52.314C50.2262 52.1022 49.9354 51.9658 49.8241 52.1596Z" fill="#263238"/>
<path d="M50.0397 50.5287C50.1474 50.263 50.2516 50.0009 50.3629 49.7352C50.4742 49.4695 50.6142 49.1966 50.7219 48.9166C50.7219 48.8735 50.8081 48.9166 50.7901 48.9489C50.6824 49.2146 50.6142 49.4946 50.5316 49.7675C50.449 50.0404 50.3557 50.3132 50.2659 50.5861C50.0972 51.0924 49.9069 51.595 49.6735 52.0869C49.956 52.101 50.2381 52.0519 50.4993 51.9433C50.7661 51.7726 50.9711 51.5209 51.0845 51.2252C51.2353 50.9308 51.3754 50.6292 51.5297 50.3348C51.7198 50.0165 51.8797 49.6811 52.0073 49.3331C52.0073 49.29 52.0934 49.3331 52.0755 49.3654C51.8414 50.1013 51.5347 50.8121 51.1599 51.4873C50.9984 51.7494 50.8727 52.0259 50.5783 52.1264C50.2596 52.2155 49.9261 52.2387 49.5981 52.1946C49.555 52.1946 49.5047 52.1946 49.5191 52.13C49.6661 51.588 49.8399 51.0535 50.0397 50.5287Z" fill="#263238"/>
<path d="M49.3075 53.8822C49.9214 55.1783 50.46 56.4709 51.0309 57.7634C51.6017 59.056 52.108 60.3054 52.6214 61.5908C53.6483 64.1831 54.5674 66.8256 55.3753 69.4897C55.7738 70.811 56.1436 72.1431 56.474 73.4859C56.8378 74.8244 57.1042 76.1876 57.271 77.5646C57.4151 78.9394 57.2932 80.329 56.912 81.6577C56.516 82.971 56.0079 84.248 55.3932 85.4743C55.0162 86.2498 54.8906 86.1457 55.0701 85.7544C55.5835 84.6413 56.9299 81.2699 56.833 78.4371C56.7545 77.0809 56.5452 75.7354 56.2083 74.4194C55.8947 73.0622 55.5416 71.7158 55.1491 70.3802C54.3843 67.7448 53.476 65.1633 52.5424 62.5854C52.0182 61.1492 51.4653 59.713 50.9268 58.2768C50.3882 56.8407 49.8496 55.5194 49.2464 53.9324C49.2285 53.8678 49.2895 53.8427 49.3075 53.8822Z" fill="#263238"/>
<path d="M36.6365 49.6001C36.9345 49.4888 37.3546 49.672 37.6562 49.7222C38.0468 49.7885 38.4415 49.8281 38.8375 49.8407C39.2293 49.8545 39.6216 49.8413 40.0115 49.8012C40.4043 49.7911 40.7892 49.689 41.1353 49.5032C41.7033 49.0895 42.1901 48.5746 42.5715 47.9845C43.026 47.3814 43.4012 46.7226 43.6881 46.0241C43.6881 45.981 43.7635 46.0241 43.7492 46.0528C43.6235 46.4513 43.5302 46.8535 43.3901 47.2448C43.2353 47.6125 43.0504 47.9668 42.8372 48.304C42.4915 48.9826 41.9803 49.563 41.3508 49.9915C40.6578 50.3865 39.7674 50.3505 38.9954 50.3182C38.5477 50.2921 38.1025 50.2333 37.6634 50.1423C37.3474 50.0741 36.8161 50.0238 36.615 49.7474C36.6055 49.7368 36.5985 49.7243 36.5944 49.7107C36.5904 49.6971 36.5893 49.6828 36.5914 49.6687C36.5934 49.6547 36.5985 49.6413 36.6063 49.6294C36.6141 49.6176 36.6244 49.6076 36.6365 49.6001Z" fill="#263238"/>
<path d="M24.5691 107.812C27.3122 103.657 30.005 99.4677 32.6476 95.2453C35.2901 91.023 37.8968 86.7684 40.4675 82.4814C41.0815 81.4581 41.7888 80.4384 42.1838 79.3039C42.6146 78.0724 42.3705 76.8768 41.9827 75.6704C41.2505 73.4696 40.3946 71.3119 39.4191 69.2076C38.4569 67.0857 37.4193 64.9996 36.3996 62.9064C35.3799 60.8132 34.3135 58.7451 33.5272 56.5621C32.8092 54.4761 32.5183 52.3147 33.0784 50.1532C33.6385 47.9918 34.8449 46.0817 36.1052 44.2829C36.4355 43.809 36.7766 43.3386 37.1105 42.8467C37.1356 42.8108 37.1895 42.8467 37.1643 42.8898C35.7748 44.764 34.4213 46.7495 33.6062 48.9504C33.1897 50.0353 32.9567 51.182 32.9169 52.3434C32.9101 53.5223 33.0931 54.6946 33.459 55.8153C34.134 57.9983 35.2004 60.0628 36.1949 62.1165C37.1895 64.1702 38.2522 66.2958 39.2324 68.4105C40.2436 70.5389 41.1425 72.7189 41.9252 74.9415C42.2591 75.9289 42.6433 76.9629 42.6146 78.0221C42.5895 79.1818 42.0365 80.2266 41.4621 81.2032C38.9488 85.4579 36.3744 89.6622 33.7534 93.8415C31.1324 98.0207 28.436 102.2 25.7073 106.336L24.6733 107.898C24.6194 107.963 24.5261 107.887 24.5691 107.812Z" fill="#263238"/>
<path d="M54.6748 29.3488C56.2295 32.7597 64.0817 37.4596 67.7583 37.9658C70.4009 38.3249 78.4362 38.4541 81.1901 38.034C84.4215 37.5386 81.9513 28.8318 80.0448 29.058C74.8027 29.6684 70.3506 30.3505 68.9503 30.3505C67.2413 30.3505 57.996 27.3849 56.8829 26.9648C54.1542 25.9487 53.7952 27.4136 54.6748 29.3488Z" fill="#EB9481"/>
<path d="M54.725 30.2578C56.6926 33.1697 63.2307 37.9306 63.2307 37.9306L64.1391 35.9199L67.1443 29.2705C67.1443 29.2705 61.1375 27.3855 57.1845 26.5238C56.7193 26.4179 56.2461 26.3507 55.7698 26.3227C53.2458 26.1863 53.0267 27.7445 54.725 30.2578Z" fill="#FF7043"/>
<path d="M54.725 30.2574C56.6926 33.1692 63.2307 37.9301 63.2307 37.9301L64.1391 35.9195C61.7012 33.0866 57.9349 28.7961 55.7698 26.3295C53.2458 26.1858 53.0267 27.7441 54.725 30.2574Z" fill="#263238"/>
<path d="M62.0531 36.5817C62.5522 35.3573 64.7711 30.4277 65.324 29.4008C65.3599 29.329 65.4173 29.3362 65.385 29.4008C64.4225 31.8523 63.327 34.2495 62.1034 36.5817C62.089 36.6247 62.0316 36.6104 62.0531 36.5817Z" fill="#263238"/>
<path d="M79.0825 29.149C82.2708 28.7325 86.2167 28.018 89.5594 29.4362C89.9348 29.5835 90.2498 29.8529 90.4534 30.201C91.9614 30.8114 92.1265 31.7054 92.1265 31.7054C93.358 32.7035 93.4011 33.6442 93.4011 33.6442C93.4011 33.6442 95.1676 34.3623 94.8983 35.5184C94.6039 36.7966 92.184 35.5184 90.4247 35.6225C86.3854 35.8739 80.7305 37.3567 79.5636 37.5434L79.0825 29.149Z" fill="#EB9481"/>
<path d="M86.0084 32.9107C87.1895 32.83 88.3747 32.83 89.5558 32.9107C90.842 33.0721 92.1142 33.3302 93.3616 33.6827C93.3697 33.6855 93.3786 33.6851 93.3863 33.6814C93.3941 33.6777 93.4 33.671 93.4029 33.6629C93.4058 33.6548 93.4053 33.6459 93.4016 33.6382C93.3979 33.6305 93.3912 33.6245 93.3831 33.6216C91.0396 32.7022 88.4887 32.4439 86.0084 32.8748C85.951 32.8677 85.951 32.9143 86.0084 32.9107Z" fill="#263238"/>
<path d="M85.2581 29.1799C87.2292 29.2805 88.4608 29.5964 90.4427 30.1924V30.1709C88.2597 29.2589 87.3657 29.1727 85.2473 29.0938C85.1791 29.1225 85.1827 29.1799 85.2581 29.1799Z" fill="#263238"/>
<path d="M85.5774 36.2324C85.064 36.473 85.1897 36.7423 86.1699 36.9685C87.15 37.1947 91.2252 37.2629 91.0816 38.6847C90.9379 40.1065 85.1897 39.927 83.5848 39.4243C81.9798 38.9216 79.5635 37.5429 79.5635 37.5429C80.7016 37.3526 83.3729 36.631 85.5774 36.2324Z" fill="#EB9481"/>
<path d="M58.9441 34.7843C58.9189 35.3983 58.8615 36.023 58.7753 36.6442C58.7753 36.619 58.7753 36.5975 58.8005 36.576C58.9189 36.2528 59.0374 35.9225 59.181 35.6101C59.181 35.6101 59.217 35.6101 59.2134 35.6101C59.1444 35.9524 59.0409 36.2868 58.9046 36.6083C58.84 36.7627 58.7789 36.9135 58.7107 37.0642C58.6676 37.3407 58.6174 37.6136 58.5635 37.8865C58.4558 38.3999 57.9711 40.5829 57.8454 40.9527C57.8239 41.0281 57.7305 41.0101 57.7377 40.924C57.7628 40.5218 58.1686 38.2491 58.2511 37.7321C58.4115 36.7338 58.6261 35.745 58.8938 34.77C58.9118 34.752 58.9477 34.7664 58.9441 34.7843Z" fill="#263238"/>
<path d="M55.21 51.11C54.2514 51.6019 53.0163 52.3667 47.4511 51.2716C47.0921 51.1998 46.7546 51.1136 46.4027 51.0095C41.1858 49.4441 34.9134 43.308 34.5723 42.8736C34.5723 42.8736 42.8625 29.4346 53.4651 25.2087C54.7756 24.6881 56.9442 25.6934 58.1326 26.9465C58.5599 27.3953 59.4898 30.6949 59.1343 33.3662C58.7789 36.0374 56.1651 50.6181 55.21 51.11Z" fill="#FF7043"/>
<path d="M54.4631 33.2441C54.5031 33.812 54.4236 34.382 54.2297 34.9173C54.1842 34.3492 54.2639 33.7781 54.4631 33.2441Z" fill="white"/>
<path d="M50.8473 42.3965C50.8702 42.6791 50.8605 42.9634 50.8186 43.2438C50.784 43.5264 50.7153 43.8036 50.6139 44.0696C50.5892 43.7859 50.5989 43.5001 50.6427 43.2187C50.6794 42.9377 50.748 42.6619 50.8473 42.3965Z" fill="white"/>
<path d="M44.7041 35.4785C44.7446 36.0476 44.6651 36.6188 44.4708 37.1552C44.4256 36.586 44.5053 36.0138 44.7041 35.4785Z" fill="white"/>
<path d="M56.8292 41.9297C56.8522 42.2135 56.8425 42.499 56.8005 42.7806C56.766 43.0632 56.6972 43.3404 56.5959 43.6064C56.5711 43.3226 56.5808 43.0369 56.6246 42.7555C56.6609 42.4733 56.7295 42.1962 56.8292 41.9297Z" fill="white"/>
<path d="M48.9409 34.2926C49.2234 34.2686 49.5077 34.277 49.7883 34.3178C50.0709 34.3536 50.3482 34.4235 50.6141 34.526C50.0461 34.5668 49.476 34.4873 48.9409 34.2926Z" fill="white"/>
<path d="M41.9683 40.9027C42.5362 40.8626 43.1061 40.9421 43.6414 41.136C43.0733 41.1816 42.5022 41.1019 41.9683 40.9027Z" fill="white"/>
<path d="M50.1836 48.0592C50.7515 48.0184 51.3217 48.098 51.8567 48.2926C51.2887 48.3374 50.7177 48.2578 50.1836 48.0592Z" fill="white"/>
<path d="M39.8179 45.4593C40.3858 45.4193 40.9557 45.4988 41.491 45.6927C40.923 45.7375 40.352 45.6579 39.8179 45.4593Z" fill="white"/>
<path d="M54.4092 26.8109C54.9771 26.7708 55.547 26.8503 56.0823 27.0442C55.5144 27.0843 54.9444 27.0048 54.4092 26.8109Z" fill="white"/>
<path d="M52.3806 29.1016C52.199 29.3198 51.9917 29.5151 51.763 29.6832C51.5405 29.8553 51.2997 30.0022 51.0449 30.1212C51.2252 29.9044 51.4301 29.7093 51.6553 29.5396C51.8799 29.3669 52.1232 29.22 52.3806 29.1016Z" fill="white"/>
<path d="M41.3256 35.6113C41.1418 35.8276 40.9333 36.0216 40.7044 36.1894C40.4842 36.3647 40.243 36.5118 39.9863 36.6274C40.171 36.412 40.3794 36.2181 40.6075 36.0494C40.8282 35.8748 41.0693 35.7277 41.3256 35.6113Z" fill="white"/>
<path d="M55.1307 38.5488C54.9471 38.7663 54.7386 38.9615 54.5096 39.1305C54.2888 39.305 54.0477 39.4521 53.7915 39.5685C53.9752 39.3511 54.1836 39.1559 54.4126 38.9869C54.6346 38.8141 54.8755 38.6671 55.1307 38.5488Z" fill="white"/>
<path d="M46.1908 44.1777C46.0071 44.3952 45.7987 44.5904 45.5696 44.7594C45.3485 44.9334 45.1075 45.0805 44.8516 45.1974C45.0352 44.98 45.2437 44.7848 45.4727 44.6158C45.6947 44.443 45.9356 44.296 46.1908 44.1777Z" fill="white"/>
<path d="M58.556 30.8574C58.3724 31.0749 58.1639 31.2701 57.9349 31.4391C57.7124 31.6111 57.4716 31.758 57.2168 31.8771C57.4005 31.6597 57.6089 31.4645 57.8379 31.2955C58.059 31.1214 58.3001 30.9744 58.556 30.8574Z" fill="white"/>
<path d="M58.3693 37.3802C58.1519 37.1966 57.9566 36.9881 57.7876 36.7591C57.6129 36.5385 57.4658 36.2973 57.3496 36.041C57.5678 36.2225 57.7631 36.4299 57.9313 36.6586C58.1028 36.8827 58.2497 37.1246 58.3693 37.3802Z" fill="white"/>
<path d="M38.4425 41.8763C38.2251 41.6927 38.0299 41.4842 37.8609 41.2552C37.6881 41.0332 37.5411 40.7923 37.4229 40.5371C37.6403 40.7208 37.8355 40.9292 38.0045 41.1583C38.1785 41.3794 38.3256 41.6204 38.4425 41.8763Z" fill="white"/>
<path d="M55.9459 47.2224C55.7277 47.0408 55.5324 46.8335 55.3643 46.6048C55.1923 46.3823 55.0454 46.1415 54.9263 45.8867C55.1437 46.0704 55.3389 46.2789 55.5079 46.5079C55.6812 46.7282 55.8282 46.968 55.9459 47.2224Z" fill="white"/>
<path d="M47.1745 31.9821C46.9571 31.7997 46.7619 31.5924 46.5928 31.3646C46.4215 31.1416 46.2746 30.9008 46.1548 30.6465C46.373 30.828 46.5683 31.0354 46.7364 31.264C46.9077 31.487 47.0546 31.7278 47.1745 31.9821Z" fill="white"/>
<path d="M47.3288 50.267C47.1113 50.0833 46.9161 49.8748 46.7471 49.6458C46.5749 49.4235 46.428 49.1826 46.3091 48.9277C46.5273 49.1092 46.7226 49.3166 46.8907 49.5453C47.0635 49.7685 47.2104 50.0106 47.3288 50.267Z" fill="white"/>
<path d="M48.8188 39.4818C48.6034 39.2971 48.4095 39.0887 48.2408 38.8607C48.0655 38.6404 47.9183 38.3992 47.8027 38.1426C48.019 38.3263 48.2131 38.5348 48.3808 38.7637C48.5553 38.9845 48.7024 39.2256 48.8188 39.4818Z" fill="white"/>
<path d="M56.19 30.5256C54.8364 30.2742 53.5654 27.4773 53.4038 25.5959C53.4038 25.4667 54.0357 24.4434 54.7574 23.1616C55.1954 22.3825 55.6586 21.5028 56.0284 20.6699C56.1038 20.5011 56.5454 21.072 56.5454 21.072L57.5077 21.7901L60.6852 24.228C59.9285 25.1359 59.2858 26.1331 58.7715 27.1973C58.7207 27.3126 58.6822 27.4329 58.6566 27.5563C58.6552 27.5766 58.6552 27.597 58.6566 27.6173C58.4591 28.3282 57.4933 30.7661 56.19 30.5256Z" fill="#EB9481"/>
<path d="M58.6565 27.576C58.6551 27.5963 58.6551 27.6167 58.6565 27.637C58.4678 27.5817 58.2841 27.5109 58.1072 27.4252C54.628 25.7951 56.1612 21.1348 56.1612 21.1348L57.5255 21.8098L60.703 24.2477C59.9464 25.1556 59.3037 26.1528 58.7893 27.2169C58.7324 27.3315 58.6879 27.4519 58.6565 27.576Z" fill="#263238"/>
<path d="M64.3364 14.3086C64.3364 14.3086 65.927 15.3175 65.9342 17.1127C65.9413 18.9079 65.2161 20.6636 65.0653 20.7283C64.9145 20.7929 64.3364 14.3086 64.3364 14.3086Z" fill="#263238"/>
<path d="M56.4448 15.2422C55.4898 17.1271 55.5401 23.0693 56.7321 24.5988C58.4627 26.8177 61.7946 27.5824 63.8088 25.3887C65.7584 23.2632 65.5573 15.5222 64.1678 14.0789C62.1464 11.9462 57.8595 12.4524 56.4448 15.2422Z" fill="#EB9481"/>
<path d="M61.5145 20C61.5145 20 61.4821 20.0215 61.4857 20.0359C61.5073 20.4416 61.4642 20.9084 61.1016 21.052C61.1016 21.052 61.1016 21.0771 61.1016 21.0735C61.5504 21.0017 61.6006 20.3806 61.5145 20Z" fill="#263238"/>
<path d="M61.145 19.5867C60.4915 19.5508 60.47 20.8577 61.0768 20.89C61.6836 20.9223 61.6907 19.6154 61.145 19.5867Z" fill="#263238"/>
<path d="M63.73 19.9863C63.73 19.9863 63.7623 19.9863 63.7623 20.0222C63.7408 20.4279 63.7875 20.8947 64.1537 21.0347C64.1537 21.0347 64.1537 21.0599 64.1537 21.0563C63.7013 20.9881 63.6474 20.3669 63.73 19.9863Z" fill="#263238"/>
<path d="M64.0997 19.5692C64.7496 19.5297 64.7819 20.8367 64.1787 20.8726C63.5755 20.9085 63.554 19.6016 64.0997 19.5692Z" fill="#263238"/>
<path d="M60.7356 18.5928C60.9072 18.544 61.0761 18.4865 61.2418 18.4205C61.4304 18.3863 61.6023 18.2903 61.7301 18.1476C61.7612 18.0953 61.7741 18.0343 61.767 17.9739C61.7599 17.9136 61.733 17.8572 61.6906 17.8137C61.5935 17.7398 61.4784 17.6932 61.3572 17.6787C61.236 17.6642 61.1131 17.6823 61.0013 17.7311C60.759 17.796 60.5493 17.9481 60.4125 18.1584C60.3851 18.2084 60.3727 18.2652 60.3767 18.322C60.3807 18.3788 60.4009 18.4334 60.4349 18.4791C60.4689 18.5248 60.5153 18.5598 60.5686 18.58C60.6219 18.6001 60.6798 18.6046 60.7356 18.5928Z" fill="#263238"/>
<path d="M64.545 19.1713C64.3703 19.1322 64.1978 19.0843 64.028 19.0277C63.8388 19.0026 63.6632 18.9155 63.5289 18.7799C63.4943 18.73 63.4776 18.6698 63.4815 18.6092C63.4854 18.5486 63.5097 18.4911 63.5504 18.446C63.643 18.3668 63.7553 18.3141 63.8753 18.2932C63.9953 18.2724 64.1188 18.2842 64.2326 18.3275C64.4782 18.3784 64.6959 18.5193 64.843 18.7225C64.8738 18.7706 64.8899 18.8266 64.8894 18.8836C64.8889 18.9407 64.8718 18.9964 64.8403 19.044C64.8087 19.0916 64.764 19.1289 64.7115 19.1515C64.6591 19.1741 64.6012 19.181 64.545 19.1713Z" fill="#263238"/>
<path d="M60.5955 23.8383C60.6925 23.9352 60.7858 24.0645 60.933 24.0788C61.084 24.0787 61.2332 24.0469 61.3711 23.9855C61.3711 23.9855 61.3962 23.9855 61.3711 24.007C61.3122 24.0859 61.233 24.1473 61.1419 24.1847C61.0509 24.222 60.9513 24.2338 60.854 24.2188C60.772 24.1965 60.6984 24.1505 60.6422 24.0867C60.586 24.0229 60.5498 23.944 60.5381 23.8598C60.5352 23.8522 60.5355 23.8437 60.5389 23.8363C60.5423 23.8289 60.5484 23.8232 60.556 23.8203C60.5637 23.8175 60.5721 23.8177 60.5795 23.8211C60.5869 23.8245 60.5927 23.8306 60.5955 23.8383Z" fill="#263238"/>
<path d="M62.9436 22.108C62.9436 22.108 62.9616 22.7112 62.9436 22.9949C62.3919 22.9363 61.8348 22.9557 61.2884 23.0523C61.1592 23.081 61.1736 22.9769 61.3208 22.9087C61.7608 22.7076 62.2509 22.6425 62.7282 22.722C62.7569 22.6466 62.6815 21.7885 62.7282 21.7921C62.9454 21.8347 63.1556 21.9072 63.3529 22.0075C63.3529 20.7437 63.1519 19.4942 63.1698 18.2304C63.1698 18.1873 63.2381 18.1801 63.2452 18.2304C63.5004 19.5673 63.6207 20.9265 63.6043 22.2875C63.6079 22.4419 63.0513 22.1655 62.9436 22.108Z" fill="#263238"/>
<path d="M62.1358 22.7787C61.9927 23.1552 61.7272 23.4726 61.3818 23.6799C60.8397 23.8989 60.6638 23.407 61.2095 22.9618C61.4957 22.8172 61.8161 22.7538 62.1358 22.7787Z" fill="#263238"/>
<path d="M61.572 23.5684C61.5147 23.6151 61.4505 23.6526 61.3817 23.6797C60.8826 23.8807 60.6851 23.4822 61.0873 23.0801C61.3601 23.1016 61.6725 23.2022 61.572 23.5684Z" fill="#FF99BA"/>
<path d="M56.1721 20.3229C56.8291 20.5239 57.5831 18.5492 57.7985 17.8096C57.9852 17.1418 58.2007 15.0198 58.233 14.8726C58.2653 14.7254 61.1053 16.7504 62.7497 16.2693C64.3941 15.7882 65.5108 14.2981 65.5359 13.6052C65.561 12.9122 63.5037 11.1529 61.7264 11.0632C59.9492 10.9734 57.54 13.2174 57.54 13.2174C57.831 12.8872 58.0952 12.5342 58.3299 12.1618C58.3012 12.0828 57.1523 12.5424 56.9404 13.361C56.9404 13.361 57.1702 12.3306 57.084 12.3126C56.9979 12.2947 56.1038 13.1743 56.3049 13.8422C56.3049 13.8422 55.2709 14.7362 55.1775 15.7164C55.0842 16.6965 55.4001 20.0859 56.1721 20.3229Z" fill="#263238"/>
<path d="M63.9272 15.8964C63.4381 16.1616 62.9114 16.3505 62.3653 16.4565C61.7524 16.5112 61.1354 16.4125 60.5701 16.1693C60.0006 15.9493 59.4716 15.6363 59.0047 15.243C58.5918 14.9055 58.222 14.4926 57.7804 14.191C57.6691 14.112 57.5434 14.2736 57.6116 14.3741C58.3484 15.4148 59.401 16.1904 60.6132 16.5858C61.1762 16.7694 61.7773 16.8037 62.3575 16.6853C62.9378 16.567 63.4774 16.3001 63.9236 15.9108C63.9236 15.9108 63.9344 15.8964 63.9272 15.8964Z" fill="#263238"/>
<path d="M56.8577 20.1476C56.8577 20.1476 55.838 18.0795 54.9188 18.4134C53.9997 18.7473 54.5598 21.6089 55.5041 22.1331C55.6198 22.2079 55.7493 22.2587 55.8851 22.2822C56.0208 22.3057 56.1599 22.3016 56.294 22.2701C56.4281 22.2386 56.5545 22.1803 56.6655 22.0988C56.7766 22.0173 56.87 21.9141 56.9403 21.7956L56.8577 20.1476Z" fill="#EB9481"/>
<path d="M55.1023 19.2266C55.1023 19.2266 55.0808 19.2266 55.1023 19.2553C55.7558 19.6431 56.0215 20.3324 56.1795 21.0505C56.1497 20.9745 56.1038 20.9058 56.0449 20.8493C55.9861 20.7928 55.9156 20.7497 55.8384 20.7231C55.7613 20.6964 55.6792 20.6869 55.598 20.695C55.5168 20.7032 55.4383 20.729 55.368 20.7704C55.3465 20.7704 55.368 20.8099 55.368 20.8099C55.4965 20.79 55.628 20.8103 55.7443 20.8682C55.8607 20.9261 55.9563 21.0186 56.0179 21.1331C56.1207 21.3248 56.2025 21.527 56.2621 21.7363C56.2836 21.8045 56.4021 21.7865 56.3913 21.7111C56.5457 20.8171 56.043 19.4635 55.1023 19.2266Z" fill="#263238"/>
<path d="M50.1258 29.3824C49.4077 33.4504 53.8167 47.155 56.6424 49.715C60.8468 53.5208 68.62 56.0234 71.4385 56.8384C72.6664 57.1974 76.063 48.5553 74.8207 47.9844C72.1602 46.7744 63.895 44.1893 63.1087 43.5431C62.3224 42.8968 57.5831 36.0498 55.4719 32.1076C52.6462 26.8009 50.4812 27.3251 50.1258 29.3824Z" fill="#EB9481"/>
<path d="M72.7274 47.2227C72.7274 47.2227 76.3968 48.1598 78.7629 48.8814C80.0842 49.2871 82.2887 50.1812 83.1253 50.9208C84.3747 52.0302 88.8915 57.459 87.5989 58.5828C86.4285 59.6024 83.1396 54.443 83.1396 54.443C83.1396 54.443 86.9168 59.3547 85.2939 60.3205C83.671 61.2863 80.7017 54.9636 80.7017 54.9636C80.7017 54.9636 84.4681 60.0979 82.6262 60.8268C81.2331 61.3761 78.2459 55.8002 78.2459 55.8002C78.2459 55.8002 81.4557 60.2343 80.0411 60.8627C78.4829 61.5592 75.4059 56.5829 75.4059 56.5829C71.5569 57.5774 69.3022 56.4752 67.8193 55.5058C67.471 55.2688 72.7274 47.2227 72.7274 47.2227Z" fill="#EB9481"/>
<path d="M81.9405 52.6583C82.4072 53.2184 82.8812 53.7857 83.2941 54.3853C83.707 54.9849 84.0983 55.6024 84.4538 56.2379C84.9354 57.0599 85.3209 57.9345 85.6027 58.8446C84.9852 57.2648 83.5382 55.0926 83.1253 54.493C82.7124 53.8934 82.3283 53.2723 81.919 52.6727C81.9082 52.6583 81.9297 52.6439 81.9405 52.6583Z" fill="#263238"/>
<path d="M79.7469 54.1119C80.5439 54.7438 82.2135 57.0919 82.8562 58.6681C82.8849 58.7328 82.8562 58.7292 82.8095 58.6681C82.3068 57.889 80.2675 54.8731 79.7289 54.1227C79.7181 54.1119 79.7361 54.1011 79.7469 54.1119Z" fill="#263238"/>
<path d="M77.6393 55.031C78.6296 56.0698 79.412 57.2885 79.9443 58.6214C79.9694 58.686 79.9192 58.6752 79.8797 58.6214C79.1365 57.4114 78.562 56.4671 77.5998 55.0633C77.5854 55.031 77.6177 54.9986 77.6393 55.031Z" fill="#263238"/>
<path d="M54.1326 29.6806C50.8545 25.0454 48.8942 26.7616 49.5512 31.7954C50.1688 36.5024 51.8168 42.1107 51.8168 42.1107L60.0747 38.1038C60.0747 38.1038 56.2186 32.6499 54.1326 29.6806Z" fill="#FF7043"/>
<path d="M56.1257 31.5039C56.2345 31.7657 56.3128 32.0392 56.359 32.3189C56.4094 32.5996 56.4275 32.8851 56.4129 33.1699C56.3052 32.9067 56.2281 32.632 56.1831 32.3512C56.1297 32.0722 56.1104 31.7876 56.1257 31.5039Z" fill="white"/>
<path d="M51.2319 34.3223C51.7589 34.108 52.326 34.01 52.8943 34.0351C52.6324 34.1428 52.3589 34.2199 52.0793 34.2649C51.8002 34.3182 51.5157 34.3375 51.2319 34.3223Z" fill="white"/>
<path d="M51.4437 27.1113C51.2214 27.636 50.8896 28.1073 50.4707 28.4936C50.693 27.9689 51.0248 27.4977 51.4437 27.1113Z" fill="white"/>
<path d="M58.4413 36.4863C58.3323 36.7489 58.1937 36.9983 58.0284 37.2295C57.8673 37.4638 57.6793 37.6783 57.4683 37.8686C57.6906 37.3439 58.0223 36.8727 58.4413 36.4863Z" fill="white"/>
<path d="M52.6963 39.2992C52.4331 39.1915 52.1836 39.0529 51.9531 38.8863C51.7187 38.7254 51.5042 38.5374 51.314 38.3262C51.8387 38.5485 52.3099 38.8802 52.6963 39.2992Z" fill="white"/>
<path d="M55.2102 31.0762C55.6518 31.683 56.1078 32.2754 56.5602 32.8714C56.4453 32.5698 56.3448 32.2646 56.2586 31.9558H56.2801C56.3699 32.1928 56.474 32.4262 56.5602 32.6739L56.6894 33.033C56.7006 33.0575 56.7102 33.0826 56.7182 33.1084C57.0772 33.5715 57.4363 34.0347 57.7666 34.5086C58.1723 35.0759 58.5636 35.6504 58.9586 36.2248C59.3535 36.7993 59.7521 37.5138 60.1793 38.0919C60.2188 38.1421 59.4613 38.4509 59.3787 38.4904C59.2961 38.5299 59.253 38.4617 59.332 38.4365C59.411 38.4114 60.0142 38.0416 60.0214 38.0344C59.6264 37.4528 59.1704 36.9178 58.7575 36.3541C58.3446 35.7904 57.9353 35.2267 57.5368 34.6558C56.7289 33.4925 55.9893 32.2861 55.1851 31.1193L55.2102 31.0762Z" fill="#263238"/>
<path d="M49.7451 35.1271C49.8708 35.3713 50.0072 35.6119 50.1042 35.8632L50.2406 36.1756C50.0503 35.2815 49.8816 34.3803 49.6841 33.4863C50.0647 34.9225 50.4488 36.391 50.8007 37.8487C51.1346 39.2418 51.5403 40.6492 51.7342 42.071C51.9846 41.9612 52.2441 41.8735 52.5097 41.8089C52.2431 41.9815 51.9561 42.1202 51.6552 42.2218C51.2224 40.776 50.8629 39.3092 50.5781 37.8271C50.4883 37.425 50.4058 37.0229 50.3196 36.6208C50.2262 36.3766 50.1149 36.1432 50.0036 35.9027C49.8923 35.6621 49.7918 35.3928 49.6913 35.1379C49.7128 35.1236 49.7379 35.1092 49.7451 35.1271Z" fill="#263238"/>
<path d="M51.9391 40.7245C53.088 40.0782 57.8884 37.5936 58.9619 37.1341C59.0373 37.1017 59.0768 37.1341 59.0014 37.1843C56.7228 38.5084 54.3736 39.707 51.9642 40.7748C51.9355 40.7819 51.9068 40.7424 51.9391 40.7245Z" fill="#263238"/>
<path d="M183.503 135.115H74.1099L89.9257 45.4082H199.319L183.503 135.115Z" fill="#FF7043"/>
<path d="M127.367 36.1172H91.5666L89.9258 45.4092H128.239L127.367 36.1172Z" fill="#FF7043"/>
<g opacity="0.1">
<path d="M183.503 135.115H74.1104L89.9262 45.4082H199.319L183.503 135.115Z" fill="black"/>
<path d="M127.367 36.1172H91.5671L89.9263 45.4092H128.24L127.367 36.1172Z" fill="black"/>
</g>
<path d="M87.7035 39.9088C87.4641 38.8814 87.4641 37.8126 87.7035 36.7852C87.9429 37.8126 87.9429 38.8814 87.7035 39.9088Z" fill="#263238"/>
<path d="M84.522 40.827C84.1564 40.4479 83.8414 40.0231 83.5849 39.5631C83.3158 39.1128 83.1047 38.6302 82.9565 38.127C83.3232 38.5038 83.6383 38.9276 83.8936 39.3872C84.1621 39.8391 84.3732 40.3228 84.522 40.827Z" fill="#263238"/>
<path d="M82.2241 43.2142C81.2152 42.9074 80.2902 42.3731 79.5205 41.6523C80.0239 41.7986 80.5065 42.0086 80.9567 42.2771C81.4166 42.5353 81.8424 42.8501 82.2241 43.2142Z" fill="#263238"/>
<path d="M81.4201 46.4335C80.3926 46.6728 79.3238 46.6728 78.2964 46.4335C79.3238 46.1941 80.3926 46.1941 81.4201 46.4335Z" fill="#263238"/>
<path d="M82.3538 49.6133C81.9731 49.977 81.5486 50.2918 81.09 50.5504C80.6398 50.8189 80.1572 51.0288 79.6538 51.1751C80.0329 50.8095 80.4577 50.4945 80.9176 50.238C81.3672 49.9682 81.85 49.7582 82.3538 49.6133Z" fill="#263238"/>
<path d="M84.7376 51.9082C84.432 52.9186 83.8975 53.845 83.1758 54.6154C83.322 54.1114 83.5332 53.6286 83.8041 53.1792C84.06 52.7176 84.3737 52.2905 84.7376 51.9082Z" fill="#263238"/>
<path d="M87.9549 52.7012C88.0801 53.2122 88.1404 53.7369 88.1344 54.263C88.1422 54.7892 88.0818 55.3141 87.9549 55.8248C87.8262 55.3145 87.7659 54.7893 87.7754 54.263C87.7694 53.7369 87.8297 53.2122 87.9549 52.7012Z" fill="#263238"/>
<path d="M91.1357 51.8002C91.5013 52.1792 91.8163 52.604 92.0728 53.064C92.3426 53.5135 92.5526 53.9963 92.6976 54.5002C91.9758 53.7298 91.4414 52.8034 91.1357 51.793V51.8002Z" fill="#263238"/>
<path d="M93.4302 49.3945C93.934 49.5395 94.4168 49.7495 94.8663 50.0193C95.3263 50.2758 95.7511 50.5908 96.1302 50.9564C95.6263 50.8114 95.1435 50.6014 94.694 50.3316C94.2341 50.0751 93.8093 49.7601 93.4302 49.3945Z" fill="#263238"/>
<path d="M94.2236 46.1775C95.2523 45.9382 96.3222 45.9382 97.3509 46.1775C96.3222 46.4168 95.2523 46.4168 94.2236 46.1775Z" fill="#263238"/>
<path d="M93.3046 42.9974C93.6846 42.634 94.1093 42.3203 94.5684 42.0639C95.017 41.7915 95.5 41.5802 96.0045 41.4355C95.2342 42.1573 94.3078 42.6917 93.2974 42.9974H93.3046Z" fill="#263238"/>
<path d="M90.917 40.7019C91.0648 40.1991 91.2747 39.7167 91.5417 39.2658C91.7983 38.8058 92.1132 38.381 92.4788 38.002C92.3339 38.5058 92.1239 38.9886 91.8541 39.4381C91.5976 39.8981 91.2826 40.3229 90.917 40.7019Z" fill="#263238"/>
<path d="M183.341 135.116H73.7151L58.147 48.666H167.777L183.341 135.116Z" fill="#FF7043"/>
<path d="M96.1373 101.513C98.6536 101.513 100.694 99.473 100.694 96.9566C100.694 94.4403 98.6536 92.4004 96.1373 92.4004C93.621 92.4004 91.5811 94.4403 91.5811 96.9566C91.5811 99.473 93.621 101.513 96.1373 101.513Z" fill="#263238"/>
<path d="M132.156 101.513C134.673 101.513 136.713 99.473 136.713 96.9566C136.713 94.4403 134.673 92.4004 132.156 92.4004C129.64 92.4004 127.6 94.4403 127.6 96.9566C127.6 99.473 129.64 101.513 132.156 101.513Z" fill="#263238"/>
<path d="M120.692 102.242L120.441 101.765C120.419 101.722 118.064 97.3701 113.328 97.3701C109.02 97.3701 107.943 101.467 107.914 101.643L107.785 102.163L106.74 101.912L106.865 101.388C106.865 101.338 108.151 96.293 113.328 96.293C118.714 96.293 121.288 101.061 121.396 101.266L121.647 101.74L120.692 102.242Z" fill="#263238"/>
<path d="M176.103 96.6082L176.028 96.2491C176.261 96.1989 176.491 96.145 176.721 96.084L176.811 96.443C176.566 96.5041 176.34 96.5579 176.103 96.6082Z" fill="#263238"/>
<path d="M178.2 96.0316L178.085 95.6941C178.534 95.5397 178.983 95.371 179.417 95.1878L179.557 95.5182C179.116 95.7049 178.66 95.8772 178.2 96.0316ZM180.875 94.8862L180.713 94.5703C181.134 94.3513 181.554 94.1143 181.952 93.8522L182.139 94.1574C181.73 94.441 181.302 94.6816 180.875 94.8862ZM183.345 93.3675L183.133 93.0767C183.521 92.793 183.895 92.495 184.246 92.1898L184.483 92.4591C184.106 92.7859 183.747 93.091 183.342 93.3819L183.345 93.3675ZM185.535 91.4574L185.273 91.2097C185.604 90.8506 185.916 90.4916 186.203 90.1325L186.487 90.3515C186.189 90.7465 185.869 91.1163 185.543 91.4718L185.535 91.4574ZM187.313 89.1595L187.007 88.9692C187.256 88.5681 187.476 88.1507 187.668 87.7198L187.998 87.867C187.795 88.3162 187.565 88.7527 187.309 89.1739L187.313 89.1595ZM188.501 86.4954L188.142 86.3949C188.273 85.9444 188.37 85.4848 188.433 85.0198L188.792 85.0664C188.732 85.5546 188.634 86.0373 188.498 86.5098L188.501 86.4954ZM188.9 83.6231H188.541V83.519C188.541 83.0845 188.515 82.6429 188.472 82.2085L188.831 82.1726C188.879 82.6198 188.903 83.0692 188.903 83.519L188.9 83.6231ZM188.253 80.8118C188.157 80.3489 188.037 79.8911 187.894 79.4403L188.253 79.3325C188.401 79.7993 188.526 80.2732 188.612 80.7364L188.253 80.8118ZM187.402 78.1082C187.23 77.6845 187.043 77.2501 186.814 76.8121L187.137 76.6505C187.356 77.0957 187.557 77.5409 187.733 77.9718L187.402 78.1082ZM186.146 75.5482C185.923 75.1569 185.679 74.744 185.428 74.3203L185.733 74.13C185.995 74.5573 186.243 74.9738 186.451 75.3723L186.146 75.5482ZM184.645 73.1103C184.383 72.7154 184.117 72.3169 183.844 71.9183L184.142 71.7173C184.415 72.1158 184.681 72.5143 184.943 72.9165L184.645 73.1103ZM183.029 70.7335C182.76 70.3385 182.487 69.94 182.221 69.545L182.519 69.344C182.785 69.7389 183.054 70.1375 183.324 70.5288L183.029 70.7335ZM181.424 68.3423C181.162 67.9401 180.907 67.5308 180.656 67.1215L180.961 66.9348C181.213 67.3441 181.467 67.7462 181.726 68.1484L181.424 68.3423ZM179.927 65.8756C179.683 65.4412 179.457 65.0103 179.252 64.5974L179.575 64.4359C179.776 64.8452 180.003 65.2689 180.24 65.6997L179.927 65.8756ZM178.653 63.2905C178.462 62.8417 178.294 62.3857 178.136 61.9405L178.495 61.8256C178.645 62.2601 178.814 62.7089 179.001 63.1505L178.653 63.2905ZM177.719 60.551C177.601 60.0843 177.496 59.6068 177.417 59.1149L177.777 59.0574C177.855 59.517 177.952 59.9838 178.071 60.4433L177.719 60.551ZM177.238 57.6787C177.202 57.2371 177.184 56.7919 177.184 56.3467V56.2282H177.543V56.3431C177.543 56.7775 177.543 57.2155 177.597 57.6464L177.238 57.6787ZM177.597 54.8064L177.238 54.7705C177.238 54.6735 177.256 54.573 177.267 54.4689C177.31 54.0847 177.364 53.7005 177.428 53.3343L177.787 53.3953C177.726 53.7544 177.672 54.1314 177.629 54.5084C177.644 54.6197 177.644 54.7166 177.615 54.8171L177.597 54.8064ZM178.096 52.013L177.737 51.9161C177.87 51.4421 178.024 50.979 178.197 50.5373L178.53 50.6666C178.367 51.1112 178.228 51.5642 178.114 52.0238L178.096 52.013ZM195.987 49.9198C195.786 49.9198 195.578 49.8911 195.373 49.8624C195.093 49.8229 194.813 49.7762 194.537 49.7223L194.608 49.3633C194.874 49.4136 195.151 49.4602 195.423 49.4997C195.617 49.5249 195.815 49.5428 196.005 49.5536L195.987 49.9198ZM197.463 49.8085L197.387 49.4495C197.838 49.3564 198.27 49.189 198.666 48.954L198.852 49.2592C198.429 49.5209 197.966 49.7102 197.481 49.8193L197.463 49.8085ZM179.13 49.3812L178.811 49.2125C179.039 48.7843 179.292 48.3695 179.568 47.9702L179.863 48.1749C179.6 48.5659 179.362 48.9723 179.148 49.392L179.13 49.3812ZM193.133 49.3597C192.669 49.2127 192.214 49.0413 191.768 48.8463L191.916 48.5159C192.347 48.7077 192.79 48.8744 193.24 49.015L193.133 49.3597ZM199.955 48.2395L199.657 48.0384C199.912 47.6675 200.064 47.2348 200.095 46.7854L200.454 46.8105C200.423 47.3256 200.254 47.8229 199.965 48.2503L199.955 48.2395ZM190.476 48.1856C190.056 47.9414 189.649 47.6741 189.259 47.385L189.471 47.0977C189.851 47.3781 190.246 47.637 190.655 47.8733L190.476 48.1856ZM180.746 47.0654L180.48 46.8249C180.805 46.4633 181.152 46.1216 181.518 45.8016L181.755 46.0709C181.402 46.386 181.069 46.7217 180.757 47.0762L180.746 47.0654ZM188.138 46.4586C187.781 46.1292 187.442 45.7804 187.122 45.4138L187.392 45.1769C187.702 45.5329 188.032 45.8721 188.379 46.1929L188.138 46.4586ZM199.825 45.4856C199.62 45.0753 199.335 44.7094 198.989 44.4085L199.226 44.1392C199.607 44.4692 199.921 44.8705 200.148 45.3205L199.825 45.4856ZM182.871 45.202L182.667 44.9076C183.068 44.6333 183.484 44.3805 183.913 44.15L184.081 44.466C183.669 44.6939 183.269 44.9432 182.882 45.2128L182.871 45.202ZM186.225 44.2685C186.088 44.0746 185.955 43.8771 185.83 43.6725L185.363 43.8556L185.227 43.5253L185.64 43.3601C185.575 43.2524 185.51 43.1447 185.449 43.037L185.762 42.861C185.833 42.9867 185.905 43.1124 185.981 43.2201C186.182 43.1483 186.386 43.08 186.595 43.0154L186.699 43.3745C186.523 43.4283 186.34 43.4858 186.175 43.5468C186.286 43.7227 186.401 43.9058 186.534 44.0602L186.225 44.2685ZM197.833 43.6509C197.485 43.4778 197.125 43.3314 196.755 43.2129L196.519 43.1375L196.623 42.7784L196.867 42.8574C197.251 42.98 197.626 43.1325 197.987 43.3134L197.833 43.6509ZM188.074 43.0082L187.998 42.6492C188.462 42.5451 188.943 42.4589 189.435 42.3907L189.488 42.7497C189.015 42.8251 188.544 42.9149 188.085 43.019L188.074 43.0082ZM195.147 42.8144C194.698 42.7354 194.224 42.6743 193.74 42.6312L193.768 42.2722C194.267 42.3153 194.752 42.3763 195.204 42.4589L195.147 42.8144ZM190.892 42.6061L190.867 42.2471C191.294 42.2219 191.722 42.2076 192.145 42.2076H192.321V42.5666H192.149C191.743 42.5774 191.32 42.5882 190.903 42.6169L190.892 42.6061ZM184.825 41.748C184.631 41.31 184.465 40.854 184.304 40.3908L184.663 40.2795C184.814 40.7319 184.982 41.1771 185.169 41.6044L184.825 41.748ZM183.916 38.9906C183.808 38.5274 183.719 38.0463 183.65 37.5544L184.009 37.5041C184.078 37.9781 184.164 38.4484 184.268 38.9044L183.916 38.9906ZM183.514 36.1182C183.496 35.7951 183.485 35.4648 183.485 35.1344C183.485 34.9801 183.485 34.8221 183.485 34.6677H183.844C183.844 34.8221 183.844 34.9729 183.844 35.1273C183.844 35.4504 183.844 35.7771 183.869 36.0895L183.514 36.1182ZM183.941 33.2459L183.582 33.21C183.632 32.736 183.701 32.2513 183.783 31.7738L184.142 31.8348C184.045 32.3124 183.977 32.7719 183.931 33.2531L183.941 33.2459ZM184.433 30.4418L184.074 30.3556C184.189 29.8924 184.322 29.4257 184.469 28.9589L184.828 29.0702C184.667 29.5406 184.534 29.9965 184.422 30.4489L184.433 30.4418ZM185.295 27.7238L184.961 27.5946C185.137 27.1458 185.32 26.6969 185.539 26.2625L185.862 26.4205C185.647 26.8513 185.456 27.2894 185.284 27.7454L185.295 27.7238ZM186.53 25.1638L186.218 24.9807C186.462 24.5678 186.724 24.1549 186.997 23.76L187.291 23.9646C187.011 24.3596 186.756 24.7617 186.519 25.171L186.53 25.1638ZM188.149 22.8265L187.869 22.6003C188.171 22.2412 188.494 21.8606 188.828 21.5231L189.086 21.7709C188.749 22.1084 188.433 22.4674 188.138 22.8337L188.149 22.8265ZM190.102 20.7584L189.862 20.4927C190.221 20.1732 190.58 19.8572 190.964 19.552L191.187 19.8357C190.803 20.1408 190.436 20.4532 190.092 20.7656L190.102 20.7584ZM192.332 18.9847L192.127 18.6867C192.519 18.4174 192.928 18.1517 193.345 17.9004L193.528 18.2056C193.111 18.4605 192.723 18.7226 192.321 18.9919L192.332 18.9847ZM194.77 17.5019L194.601 17.1859C195.025 16.9597 195.463 16.7443 195.901 16.5432L196.052 16.87C195.596 17.0746 195.176 17.29 194.759 17.5091L194.77 17.5019ZM197.366 16.3099L197.233 15.9724C197.685 15.7964 198.141 15.6133 198.594 15.4805L198.709 15.8395C198.253 15.9759 197.8 16.1411 197.355 16.317L197.366 16.3099Z" fill="#263238"/>
<path d="M200.134 15.4012L200.044 15.0421C200.489 14.9272 200.762 14.877 200.762 14.877L200.827 15.236C200.827 15.236 200.568 15.2899 200.134 15.4012Z" fill="#263238"/>
<path d="M206.482 13.0814C205.566 10.245 199.434 11.2647 200.63 14.9736C201.825 18.6825 207.397 15.9215 206.482 13.0814Z" fill="#263238"/>
<path d="M197.294 11.9464C197.341 10.7005 199.071 9.74189 201.52 10.1835C203.969 10.6251 206.27 12.2767 206.27 12.2767C206.27 12.2767 203.854 13.7416 201.38 14.0109C198.906 14.2802 197.247 13.1887 197.294 11.9464Z" fill="#EBEBEB"/>
<path d="M206.27 12.2703C204.999 12.2703 203.731 12.2344 202.464 12.1949C201.197 12.1554 199.926 12.0908 198.658 11.9902C199.929 11.9902 201.2 12.0225 202.468 12.062C203.735 12.1015 205.006 12.1662 206.27 12.2703Z" fill="#263238"/>
<path d="M199.753 10.8359C200.475 11.1811 201.155 11.6063 201.782 12.1034C201.421 11.9339 201.071 11.742 200.734 11.5289C200.394 11.3172 200.066 11.0858 199.753 10.8359Z" fill="#263238"/>
<path d="M203.082 12.1504C202.432 12.6768 201.728 13.1318 200.981 13.5076C201.634 12.9805 202.342 12.5255 203.093 12.1504H203.082Z" fill="#263238"/>
<path d="M203.452 11.4512C203.814 11.6251 204.131 11.8808 204.378 12.198C204.197 12.1125 204.027 12.0052 203.872 11.8784C203.716 11.7525 203.575 11.6091 203.452 11.4512Z" fill="#263238"/>
<path d="M199.628 19.3251C200.392 20.3089 202.356 20.0719 204.083 18.2839C205.81 16.4959 206.726 13.8066 206.726 13.8066C206.726 13.8066 203.897 14.0221 201.739 15.2428C199.581 16.4636 198.859 18.3378 199.628 19.3251Z" fill="#EBEBEB"/>
<path d="M206.726 13.8066C205.692 14.5247 204.687 15.3218 203.678 16.0937C202.669 16.8657 201.682 17.6628 200.716 18.485C201.75 17.7669 202.755 16.9734 203.76 16.2015C204.766 15.4295 205.746 14.6324 206.726 13.8066Z" fill="#263238"/>
<path d="M202.267 18.7683C202.459 18.4196 202.63 18.0599 202.78 17.6912C202.933 17.3215 203.062 16.9425 203.168 16.5566C202.975 16.9051 202.804 17.2648 202.654 17.6338C202.503 18.0041 202.374 18.3829 202.267 18.7683Z" fill="#263238"/>
<path d="M204.213 15.7669C203.372 15.722 202.53 15.7665 201.699 15.8998C202.118 15.9249 202.537 15.9249 202.956 15.8998C203.377 15.8792 203.796 15.8349 204.213 15.7669Z" fill="#263238"/>
<path d="M204.906 16.1213C205.002 15.944 205.076 15.756 205.128 15.5612C205.182 15.3678 205.213 15.1691 205.222 14.9688C205.031 15.3242 204.923 15.7182 204.906 16.1213Z" fill="#263238"/>
<path d="M206.482 13.0821C206.279 13.1479 206.062 13.1521 205.856 13.0941C205.651 13.0361 205.468 12.9185 205.33 12.7563C205.191 12.594 205.104 12.3944 205.08 12.1826C205.055 11.9709 205.093 11.7565 205.191 11.5668C205.288 11.377 205.439 11.2203 205.625 11.1166C205.812 11.0128 206.024 10.9667 206.237 10.984C206.449 11.0013 206.652 11.0813 206.819 11.2139C206.986 11.3464 207.11 11.5255 207.175 11.7285C207.262 11.9999 207.238 12.2947 207.108 12.5484C206.978 12.8021 206.753 12.994 206.482 13.0821Z" fill="#455A64"/>
<path d="M207.142 15.1312C206.939 15.1968 206.722 15.2008 206.517 15.1428C206.312 15.0847 206.129 14.9672 205.991 14.8051C205.853 14.643 205.766 14.4436 205.741 14.232C205.716 14.0205 205.754 13.8063 205.851 13.6166C205.948 13.4269 206.099 13.2702 206.285 13.1662C206.471 13.0623 206.683 13.0158 206.896 13.0327C207.108 13.0495 207.311 13.129 207.478 13.2609C207.645 13.3929 207.769 13.5714 207.835 13.7741C207.879 13.9087 207.895 14.0506 207.884 14.1916C207.873 14.3327 207.834 14.4702 207.77 14.5962C207.705 14.7223 207.617 14.8344 207.509 14.9262C207.402 15.018 207.277 15.0877 207.142 15.1312Z" fill="#455A64"/>
<path d="M89.4302 14.216C89.2582 15.8651 88.6313 17.434 87.6194 18.7476C86.6076 20.0612 85.2507 21.0677 83.7001 21.655C82.1495 22.2422 80.4662 22.3871 78.8381 22.0733C77.2099 21.7595 75.701 20.9995 74.4797 19.8781L70.0024 20.5352L72.2429 16.6647C71.7305 15.4053 71.5119 14.0457 71.6037 12.6892C71.6954 11.3327 72.0951 10.0149 72.7724 8.83601C73.4497 7.65709 74.3867 6.64803 75.5124 5.88547C76.638 5.12292 77.9226 4.62691 79.2686 4.43515C80.6147 4.24338 81.9867 4.36089 83.2805 4.77876C84.5743 5.19662 85.7559 5.90385 86.7354 6.84671C87.715 7.78958 88.4668 8.94328 88.9337 10.2202C89.4007 11.4971 89.5705 12.8636 89.4302 14.216Z" fill="white"/>
<path d="M89.4303 14.2155C89.2619 15.8637 88.6406 17.4333 87.6351 18.7502C87.1439 19.4162 86.5515 20.0013 85.8794 20.4843C85.222 20.9855 84.4967 21.3905 83.7252 21.6871C82.9532 21.9911 82.1421 22.1845 81.316 22.2616C80.903 22.2987 80.4879 22.3071 80.0737 22.2867C79.6581 22.2761 79.2439 22.2328 78.835 22.1575C77.1849 21.8539 75.652 21.0967 74.408 19.9709L74.5121 20.0032L70.0421 20.689L69.7153 20.7393L69.8805 20.452L72.1066 16.5744V16.7288C71.5813 15.4461 71.3579 14.0599 71.4538 12.6772C71.5497 11.2945 71.9622 9.9523 72.6595 8.75443C73.3559 7.56033 74.3133 6.53913 75.46 5.7672C76.6049 5.00552 77.9074 4.51294 79.2698 4.32639C80.6322 4.13985 82.0191 4.26418 83.3266 4.69007C84.6203 5.13018 85.7992 5.85395 86.777 6.80842C87.7527 7.76051 88.4988 8.92233 88.9585 10.2057C89.4182 11.4891 89.5796 12.8604 89.4303 14.2155ZM89.4303 14.2155C89.5754 12.8671 89.4087 11.5034 88.943 10.2297C88.4774 8.95594 87.7252 7.80627 86.7446 6.86942C85.7641 5.93256 84.5813 5.23359 83.2877 4.82646C81.9941 4.41933 80.6242 4.31493 79.2838 4.52132C77.9569 4.71773 76.6928 5.21647 75.5893 5.97903C74.4952 6.74759 73.5812 7.74482 72.9108 8.90164C72.2507 10.061 71.8616 11.3548 71.7726 12.6859C71.6852 14.0261 71.9012 15.3687 72.4046 16.6139L72.4369 16.6929L72.3938 16.7683L70.139 20.6316L69.981 20.3946L74.4619 19.7663H74.5229L74.566 19.8058C75.7638 20.9206 77.2481 21.6802 78.853 21.9995C79.2529 22.081 79.6587 22.1302 80.0665 22.1467C80.4741 22.1754 80.8833 22.1754 81.2909 22.1467C82.1083 22.0808 82.9129 21.9033 83.6821 21.6189C84.453 21.3382 85.1788 20.9463 85.8363 20.4556C86.5056 19.9765 87.0987 19.3991 87.5956 18.743C88.614 17.4325 89.2491 15.8652 89.4303 14.2155Z" fill="#263238"/>
<path d="M76.1562 17.4582C76.1493 17.3394 76.167 17.2203 76.208 17.1086C76.249 16.9968 76.3126 16.8946 76.3947 16.8084C76.4769 16.7223 76.5758 16.6539 76.6855 16.6075C76.7952 16.5612 76.9132 16.5379 77.0323 16.5391C77.2761 16.5391 77.5099 16.6359 77.6822 16.8083C77.8546 16.9807 77.9515 17.2145 77.9515 17.4582C77.9515 17.702 77.8546 17.9358 77.6822 18.1082C77.5099 18.2805 77.2761 18.3774 77.0323 18.3774C76.9132 18.3786 76.7952 18.3553 76.6855 18.3089C76.5758 18.2626 76.4769 18.1942 76.3947 18.108C76.3126 18.0218 76.249 17.9197 76.208 17.8079C76.167 17.6961 76.1493 17.5771 76.1562 17.4582ZM76.5153 15.3363L76.307 8.21289H77.7432L77.535 15.3363H76.5153Z" fill="#FF7043"/>
<path d="M79.5708 17.4582C79.5639 17.3397 79.5814 17.221 79.6222 17.1094C79.663 16.9979 79.7263 16.8959 79.808 16.8098C79.8898 16.7236 79.9883 16.6552 80.0976 16.6086C80.2069 16.5621 80.3245 16.5384 80.4433 16.5391C80.687 16.5391 80.9208 16.6359 81.0932 16.8083C81.2656 16.9807 81.3624 17.2145 81.3624 17.4582C81.3624 17.702 81.2656 17.9358 81.0932 18.1082C80.9208 18.2805 80.687 18.3774 80.4433 18.3774C80.3245 18.3781 80.2069 18.3544 80.0976 18.3078C79.9883 18.2613 79.8898 18.1928 79.808 18.1067C79.7263 18.0206 79.663 17.9186 79.6222 17.807C79.5814 17.6955 79.5639 17.5768 79.5708 17.4582ZM79.9298 15.3363L79.7324 8.21289H81.1685L80.9603 15.3363H79.9298Z" fill="#FF7043"/>
<path d="M82.9819 17.4582C82.975 17.3394 82.9926 17.2203 83.0337 17.1086C83.0747 16.9968 83.1382 16.8946 83.2204 16.8084C83.3025 16.7223 83.4015 16.6539 83.5112 16.6075C83.6209 16.5612 83.7389 16.5379 83.858 16.5391C84.1018 16.5391 84.3355 16.6359 84.5079 16.8083C84.6803 16.9807 84.7771 17.2145 84.7771 17.4582C84.7771 17.702 84.6803 17.9358 84.5079 18.1082C84.3355 18.2805 84.1018 18.3774 83.858 18.3774C83.7389 18.3786 83.6209 18.3553 83.5112 18.3089C83.4015 18.2626 83.3025 18.1942 83.2204 18.108C83.1382 18.0218 83.0747 17.9197 83.0337 17.8079C82.9926 17.6961 82.975 17.5771 82.9819 17.4582ZM83.341 15.3363L83.1327 8.21289H84.5689L84.3642 15.3363H83.341Z" fill="#FF7043"/>
</svg>
